Simulation
nRows=40
nColumns=15
endheader
time  TH_x TH_y TH_z SC_y  SC_z  SC_x  AC_y  AC_z  AC_x  GH_y  GH_z  GH_yy  EL_x  PS_y
8.6175  0.000000  0.000000  0.000000  -39.6874826419261  1.8877227900465878  -4.041777751001573  40.32175061511271  4.394576234964321  -2.0162004117875933  68.31897705792197  7.587889242336062  -46.90897360158794  20.48733537707112  120.000000
8.67495  0.000000  0.000000  0.000000  -38.091121899281745  1.1809017278398255  -5.521334017406968  39.39224038758068  4.511442927965343  -2.2772521353767172  61.61620596930769  9.100354940135546  -41.21664475564637  20.38590446278184  120.000000
8.7324  0.000000  0.000000  0.000000  -36.47084545171353  0.4268887973456636  -7.214002498573724  38.57714879609658  4.76317831107169  -2.3596081135587035  57.86336627920137  11.158837849185767  -38.27784812009117  20.46839265766365  120.000000
8.78985  0.000000  0.000000  0.000000  -34.955752050848226  -0.32633090571661905  -9.02291258278899  37.956805081655155  5.1241992192524854  -2.122997033813207  56.40037962490853  13.65031533349313  -37.41859566677478  20.730241100710135  120.000000
8.8473  0.000000  0.000000  0.000000  -33.723711504980436  -1.0427287591172059  -10.85377751654407  37.565089335515935  5.602048762559953  -1.3820002102978526  56.31303702417108  16.413776278984066  -37.79578167473888  21.098706703617978  120.000000
8.90475  0.000000  0.000000  0.000000  -32.92109466938554  -1.6223580786483736  -12.68286295302786  37.53286720796603  6.236059104035417  0.0051894605437304755  56.92763203651216  19.313240178411466  -38.85278658100255  21.494521506760627  120.000000
8.9622  0.000000  0.000000  0.000000  -32.65030936347573  -1.9843388364891186  -14.524631016067346  38.05065827431407  7.101778787915974  2.029483971936512  57.69275382009924  22.267968721449694  -40.221937464000696  21.827562958713646  120.000000
9.01965  0.000000  0.000000  0.000000  -33.018572124518826  -2.048317009481209  -16.370717865699618  39.17660564618269  8.248504274622805  4.570067305701098  58.262743713092235  25.204385318444153  -41.758312749319416  22.028160144099058  120.000000
9.0771  0.000000  0.000000  0.000000  -33.99232715883251  -1.670672827707688  -18.185429187416304  40.919585127869794  9.670063523175825  7.40383155390617  58.63893038432934  28.111760014849676  -43.58873005417248  22.095587745509885  120.000000
9.13455  0.000000  0.000000  0.000000  -35.30413672792818  -0.7895117255871408  -19.855303923760324  43.35156099455591  11.364096905646301  10.23328367736863  58.92039762019075  31.078338455037073  -45.86694179081836  22.050796636825286  120.000000
9.192  0.000000  0.000000  0.000000  -36.68039857660792  0.6144658173094575  -21.123290120162096  46.398564641234465  13.289836306309391  12.887202593800662  59.22904544486202  34.09778015158531  -48.646524752952274  21.925652378444067  120.000000
9.24945  0.000000  0.000000  0.000000  -38.027790632630264  2.5256299794340378  -21.601653604288764  49.6949931474605  15.320336316906705  15.422450588473543  59.76543297881752  36.948481103251126  -51.91324730800303  21.752767010735226  120.000000
9.3069  0.000000  0.000000  0.000000  -39.383465894583374  4.827082644311954  -20.87429993814258  52.77981773883988  17.280647492354504  18.007717891114343  60.75118150797745  39.37989524641009  -55.638171706574  21.551341448838755  120.000000
9.36435  0.000000  0.000000  0.000000  -40.821788599798175  7.355614464252147  -18.65194925346983  55.30955283357818  18.9349935111846  20.747641682933242  62.26015822945646  41.31786653003481  -59.805705967330944  21.293985805150353  120.000000
9.421800000000001  0.000000  0.000000  0.000000  -42.39669216029617  10.035635451848806  -14.856730354911813  57.2020394993049  20.065732552557915  23.53439260294298  64.13979504293447  42.896289574856375  -64.34083080448086  20.94462901663963  120.000000
9.47925  0.000000  0.000000  0.000000  -44.09805758928128  12.983954914725077  -9.574239701092186  58.633414054850164  20.59404518936646  26.03423002981802  66.01669362998804  44.37545553172338  -69.00812600644767  20.511088388374887  120.000000
9.5367  0.000000  0.000000  0.000000  -46.0012542841244  16.165992985125293  -3.001708244239339  59.77688009056819  20.48303800083092  27.966849682815305  67.43891806031512  45.91848704848727  -73.45135135727513  20.035936715695016  120.000000
9.59415  0.000000  0.000000  0.000000  -48.205767379499946  19.25558919668543  4.585454616389927  60.654455634354925  19.58877609005495  29.378499433846887  68.2295851487635  47.42406643197497  -77.3735166214768  19.543218018144646  120.000000
9.6516  0.000000  0.000000  0.000000  -50.68285792698996  21.84004518142585  12.795669616996856  61.297617535768445  17.80822342405905  30.425453685292208  68.4596943512531  48.69617668053121  -80.57481213641995  19.05649003629101  120.000000
9.70905  0.000000  0.000000  0.000000  -53.25119314508196  23.67439943360535  21.185037045171068  61.845908056557775  15.234204019612806  31.054757962481833  68.18763093531074  49.65097739333151  -82.90783172990248  18.62752989528588  120.000000
9.7665  0.000000  0.000000  0.000000  -55.660405268125814  24.7918678814069  29.467272374006274  62.415633546616405  11.967663198067415  31.080653938817303  67.5065482561489  50.298579254930544  -84.3380883589212  18.288511947303885  120.000000
9.82395  0.000000  0.000000  0.000000  -57.623761135266776  25.291414308525404  37.326564480921085  62.98042532252644  8.129773606032785  30.45579421729839  66.59615760663489  50.65765569975216  -84.97788121890183  18.059112115266817  120.000000
9.8814  0.000000  0.000000  0.000000  -58.9354634488497  25.382831670878193  44.349275120349255  63.45871295383213  4.010752877162766  29.296883019530604  65.65494986369643  50.75317234379007  -85.0255958504559  17.93761793786156  120.000000
9.93885  0.000000  0.000000  0.000000  -59.556179352665026  25.291373985313037  50.1944539511051  63.78733896951477  -0.08644640744042889  27.758838277092895  64.86884662085286  50.62617799397519  -84.70141868306918  17.909741277042308  120.000000
9.9963  0.000000  0.000000  0.000000  -59.529289510273514  25.15138115267101  54.59000034511262  63.930794692573116  -3.9008481615171187  25.983122503865676  64.38029046450396  50.31929837841405  -84.20924621465684  17.954116635782622  120.000000
10.05375  0.000000  0.000000  0.000000  -58.95180849286908  25.042805018897738  57.35235973919075  63.89393892903288  -7.196732685274811  24.079359037963403  64.27729399308623  49.88170168252397  -83.6874040172035  18.041528526667673  120.000000
10.1112  0.000000  0.000000  0.000000  -57.925309491690285  24.97394642744618  58.365726635325316  63.70237049472871  -9.812811394547417  22.141092582711266  64.581581449717  49.36567718863663  -83.1666338862806  18.145399628486416  120.000000
10.16865  0.000000  0.000000  0.000000  -56.54671275193784  24.893350811726826  57.579684499713416  63.384367288431925  -11.682656783988877  20.255008837475657  65.23371583536695  48.81750229039015  -82.54256071484751  18.239661214538238  120.000000
10.2261  0.000000  0.000000  0.000000  -54.89360604999662  24.695606327409322  55.002895122469944  62.94138743855936  -12.7985350176766  18.483022136357963  66.1175412911745  48.26714364158073  -81.59783766816057  18.305504383192275  120.000000
10.28355  0.000000  0.000000  0.000000  -52.99552794625493  24.219366062568955  50.6839835090057  62.313792757709926  -13.122241923094125  16.83544308051904  67.11865414882436  47.715626836305596  -80.08573468884941  18.326881084875364  120.000000
10.341000000000001  0.000000  0.000000  0.000000  -50.86447901342233  23.298589406201028  44.741112044632374  61.401044366567824  -12.592914637459549  15.27300680318335  68.11013738647962  47.14957969275858  -77.78541173865422  18.301443638305216  120.000000
10.39845  0.000000  0.000000  0.000000  -48.555530594207355  21.81145115951663  37.41184605130298  60.081668927691325  -11.221871635762353  13.746276975184045  68.93313270654474  46.558833888811975  -74.55412944162205  18.250444718719045  120.000000
10.4559  0.000000  0.000000  0.000000  -46.191280101230944  19.739071819574225  29.067903913915742  58.223056445190814  -9.120986087060702  12.231057645659678  69.45634809892282  45.958394142173496  -70.39156233756096  18.22828650902629  120.000000
10.51335  0.000000  0.000000  0.000000  -43.923537550588954  17.196819576303824  20.18746261943164  55.74746782422879  -6.477113109502669  10.748507258891868  69.65283556608668  45.40856833091046  -65.49108598084605  18.318170016269693  120.000000
10.5708  0.000000  0.000000  0.000000  -41.85721755286078  14.428832170730663  11.27828613282808  52.675930897657906  -3.512568253769772  9.383556500342827  69.61263090527747  44.95601368644802  -60.21185192806297  18.59773092343832  120.000000
10.62825  0.000000  0.000000  0.000000  -40.04463998455256  11.696638932607625  2.7883050871968433  49.13004808934751  -0.4448585252673054  8.284012991910846  69.48825300863696  44.54902808216431  -54.97294971683468  19.10550143605725  120.000000
10.6857  0.000000  0.000000  0.000000  -38.51910046483345  9.16958200365446  -4.929962451969864  45.31071865502834  2.5374602695394515  7.622266490608161  69.40346441888796  43.99247228653098  -50.14496075630359  19.821273930455682  120.000000
10.74315  0.000000  0.000000  0.000000  -37.318233146519326  6.951646115698215  -11.60613921875519  41.51008479116354  5.302783542594518  7.542551376101165  69.36603183939727  42.99021142002323  -45.956493434312506  20.664294903811836  120.000000
10.8006  0.000000  0.000000  0.000000  -36.4694942398466  5.209527830633413  -17.07283792663192  38.184501322029234  7.821480389236043  8.065669146510853  69.23219772657  41.287086718344966  -42.43731831753178  21.547559554357807  120.000000
10.85805  0.000000  0.000000  0.000000  -35.95660787691977  4.085690016916525  -21.303698895144827  35.8574408060543  10.145188828314268  9.040135327729155  68.71734113042832  38.79575499179653  -39.431944898570656  22.36559084285963  120.000000
